<svg width="300" height="160" viewBox="0 0 300 160" fill="none" xmlns="http://www.w3.org/2000/svg">
<rect width="220" height="80" transform="translate(40 40)" fill="white"/>
<path d="M118.632 83.864C118.632 80.376 119.816 77.448 122.184 75.08C124.584 72.68 127.496 71.48 130.92 71.48C134.024 71.48 136.472 72.408 138.264 74.264C140.056 76.088 140.952 78.36 140.952 81.08C140.952 81.432 140.936 81.8 140.904 82.184C140.872 82.888 140.488 83.24 139.752 83.24L124.008 83.384C124.2 85.752 125.048 87.704 126.552 89.24C128.056 90.776 129.944 91.544 132.216 91.544C134.84 91.544 137.176 90.52 139.224 88.472C139.512 88.184 139.784 88.04 140.04 88.04C140.168 88.04 140.328 88.104 140.52 88.232C140.712 88.36 140.808 88.584 140.808 88.904C140.808 89.064 140.76 89.272 140.664 89.528C140.088 91.032 138.888 92.408 137.064 93.656C135.24 94.872 132.984 95.48 130.296 95.48C126.808 95.48 123.992 94.408 121.848 92.264C119.704 90.088 118.632 87.288 118.632 83.864ZM124.104 80.744C124.232 80.872 124.552 80.936 125.064 80.936L134.664 80.888C135.144 80.888 135.432 80.84 135.528 80.744C135.624 80.616 135.672 80.376 135.672 80.024C135.672 79.928 135.672 79.816 135.672 79.688C135.576 78.024 135 76.68 133.944 75.656C132.92 74.6 131.56 74.072 129.864 74.072C128.168 74.072 126.776 74.712 125.688 75.992C124.6 77.24 124.024 78.552 123.96 79.928C123.96 80.024 123.96 80.104 123.96 80.168C123.96 80.488 124.008 80.68 124.104 80.744ZM145.097 87.176C145.577 86.728 146.185 86.504 146.921 86.504C147.337 86.504 147.705 86.616 148.025 86.84C148.377 87.032 148.633 87.24 148.793 87.464C148.953 87.656 149.177 87.96 149.465 88.376C149.561 88.504 149.769 88.84 150.089 89.384C150.409 89.896 150.633 90.264 150.761 90.488C150.889 90.68 151.129 90.984 151.481 91.4C151.833 91.784 152.169 92.072 152.489 92.264C152.809 92.424 153.209 92.584 153.689 92.744C154.169 92.904 154.681 92.984 155.225 92.984C156.249 92.984 157.065 92.712 157.673 92.168C158.281 91.624 158.585 90.936 158.585 90.104C158.585 88.344 156.649 86.696 152.777 85.16C151.561 84.68 150.601 84.28 149.897 83.96C149.225 83.608 148.473 83.144 147.641 82.568C146.809 81.992 146.201 81.336 145.817 80.6C145.465 79.832 145.289 78.968 145.289 78.008C145.289 75.928 146.185 74.328 147.977 73.208C149.769 72.056 151.881 71.48 154.312 71.48C156.905 71.48 159.033 72.008 160.697 73.064C162.361 74.12 163.193 75.464 163.193 77.096C163.193 77.896 162.985 78.536 162.569 79.016C162.153 79.464 161.593 79.688 160.889 79.688C159.769 79.688 158.873 79.064 158.201 77.816C158.105 77.656 157.945 77.368 157.721 76.952C157.529 76.536 157.369 76.232 157.241 76.04C157.145 75.848 156.953 75.592 156.665 75.272C156.409 74.92 156.153 74.68 155.897 74.552C155.641 74.392 155.305 74.248 154.889 74.12C154.505 73.992 154.057 73.928 153.545 73.928C152.649 73.928 151.897 74.2 151.289 74.744C150.681 75.256 150.377 75.912 150.377 76.712C150.377 77.736 150.777 78.6 151.577 79.304C152.377 80.008 153.881 80.808 156.089 81.704C158.777 82.792 160.745 83.816 161.993 84.776C163.273 85.736 163.913 87.032 163.913 88.664C163.913 90.584 163.049 92.2 161.321 93.512C159.593 94.824 157.337 95.48 154.553 95.48C151.545 95.48 149.097 94.84 147.209 93.56C145.321 92.248 144.377 90.728 144.377 89C144.377 88.232 144.617 87.624 145.097 87.176ZM168.487 87.176C168.967 86.728 169.575 86.504 170.311 86.504C170.727 86.504 171.095 86.616 171.415 86.84C171.767 87.032 172.023 87.24 172.183 87.464C172.343 87.656 172.567 87.96 172.855 88.376C172.951 88.504 173.159 88.84 173.479 89.384C173.799 89.896 174.023 90.264 174.151 90.488C174.279 90.68 174.519 90.984 174.871 91.4C175.223 91.784 175.559 92.072 175.879 92.264C176.199 92.424 176.599 92.584 177.079 92.744C177.559 92.904 178.071 92.984 178.615 92.984C179.639 92.984 180.455 92.712 181.063 92.168C181.671 91.624 181.975 90.936 181.975 90.104C181.975 88.344 180.039 86.696 176.167 85.16C174.951 84.68 173.991 84.28 173.287 83.96C172.615 83.608 171.863 83.144 171.031 82.568C170.199 81.992 169.591 81.336 169.207 80.6C168.855 79.832 168.679 78.968 168.679 78.008C168.679 75.928 169.575 74.328 171.367 73.208C173.159 72.056 175.271 71.48 177.703 71.48C180.295 71.48 182.423 72.008 184.087 73.064C185.751 74.12 186.583 75.464 186.583 77.096C186.583 77.896 186.375 78.536 185.959 79.016C185.543 79.464 184.983 79.688 184.279 79.688C183.159 79.688 182.263 79.064 181.591 77.816C181.495 77.656 181.335 77.368 181.111 76.952C180.919 76.536 180.759 76.232 180.631 76.04C180.535 75.848 180.343 75.592 180.055 75.272C179.799 74.92 179.543 74.68 179.287 74.552C179.031 74.392 178.695 74.248 178.279 74.12C177.895 73.992 177.447 73.928 176.935 73.928C176.039 73.928 175.287 74.2 174.679 74.744C174.071 75.256 173.767 75.912 173.767 76.712C173.767 77.736 174.167 78.6 174.967 79.304C175.767 80.008 177.271 80.808 179.479 81.704C182.167 82.792 184.135 83.816 185.383 84.776C186.663 85.736 187.303 87.032 187.303 88.664C187.303 90.584 186.439 92.2 184.711 93.512C182.983 94.824 180.727 95.48 177.943 95.48C174.935 95.48 172.487 94.84 170.599 93.56C168.711 92.248 167.767 90.728 167.767 89C167.767 88.232 168.007 87.624 168.487 87.176ZM191.542 92.888C191.766 92.632 192.022 92.408 192.31 92.216C192.63 92.024 192.902 91.624 193.126 91.016C193.382 90.376 193.51 89.544 193.51 88.52L193.462 79.304C193.462 78.472 193.334 77.784 193.078 77.24C192.854 76.664 192.598 76.296 192.31 76.136C192.022 75.944 191.75 75.736 191.494 75.512C191.27 75.256 191.158 74.968 191.158 74.648C191.158 74.36 191.254 74.12 191.446 73.928C191.638 73.736 192.022 73.512 192.598 73.256C195.062 72.104 196.838 71.496 197.926 71.432C197.958 71.432 198.006 71.432 198.07 71.432C198.358 71.432 198.582 71.528 198.742 71.72C198.902 71.912 198.982 72.232 198.982 72.68L198.934 79.304V88.52C198.934 89.544 199.046 90.376 199.27 91.016C199.526 91.624 199.782 92.024 200.038 92.216C200.326 92.408 200.582 92.648 200.806 92.936C201.062 93.224 201.19 93.56 201.19 93.944C201.19 94.648 200.534 95 199.222 95H193.174C191.83 95 191.158 94.632 191.158 93.896C191.158 93.512 191.286 93.176 191.542 92.888ZM192.022 65.72C192.054 64.696 192.534 63.768 193.462 62.936C194.39 62.104 195.334 61.688 196.294 61.688C196.422 61.688 196.534 61.688 196.63 61.688C197.366 61.72 197.974 61.992 198.454 62.504C198.966 63.016 199.222 63.608 199.222 64.28C199.222 64.344 199.222 64.392 199.222 64.424C199.19 65.416 198.694 66.328 197.734 67.16C196.774 67.96 195.798 68.36 194.806 68.36C194.71 68.36 194.63 68.36 194.566 68.36C193.766 68.328 193.142 68.088 192.694 67.64C192.246 67.16 192.022 66.6 192.022 65.96C192.022 65.896 192.022 65.816 192.022 65.72ZM205.22 74.6C205.22 74.28 205.316 74.024 205.508 73.832C205.7 73.608 206.084 73.368 206.66 73.112C208.804 72.152 210.388 71.64 211.412 71.576C212.084 71.576 212.42 71.992 212.42 72.824L212.372 76.184C213.332 74.648 214.532 73.48 215.972 72.68C217.444 71.88 218.996 71.48 220.628 71.48C223.38 71.48 225.492 72.328 226.964 74.024C228.468 75.72 229.22 78.168 229.22 81.368L229.316 88.52C229.316 89.544 229.428 90.376 229.652 91.016C229.908 91.624 230.164 92.024 230.42 92.216C230.708 92.408 230.964 92.648 231.188 92.936C231.444 93.224 231.572 93.56 231.572 93.944C231.572 94.648 230.916 95 229.604 95H223.556C222.212 95 221.54 94.632 221.54 93.896C221.54 93.512 221.652 93.192 221.876 92.936C222.132 92.648 222.404 92.408 222.692 92.216C223.012 92.024 223.284 91.624 223.508 91.016C223.764 90.376 223.892 89.544 223.892 88.52V82.04C223.892 79.864 223.492 78.136 222.692 76.856C221.892 75.544 220.628 74.888 218.9 74.888C218.836 74.888 218.788 74.888 218.756 74.888C217.284 74.92 216.004 75.512 214.916 76.664C213.828 77.816 213.188 79.432 212.996 81.512V88.52C212.996 89.544 213.108 90.376 213.332 91.016C213.588 91.624 213.844 92.024 214.1 92.216C214.388 92.408 214.644 92.648 214.868 92.936C215.124 93.224 215.252 93.56 215.252 93.944C215.252 94.648 214.596 95 213.284 95H207.236C205.892 95 205.22 94.632 205.22 93.896C205.22 93.512 205.332 93.192 205.556 92.936C205.812 92.648 206.084 92.408 206.372 92.216C206.692 92.024 206.964 91.624 207.188 91.016C207.444 90.376 207.572 89.544 207.572 88.52V79.112C207.572 77.576 207.076 76.488 206.084 75.848C205.508 75.432 205.22 75.016 205.22 74.6ZM235.604 92.888C235.828 92.632 236.084 92.408 236.372 92.216C236.692 92.024 236.964 91.624 237.188 91.016C237.444 90.376 237.572 89.544 237.572 88.52L237.524 79.304C237.524 78.472 237.396 77.784 237.14 77.24C236.916 76.664 236.66 76.296 236.372 76.136C236.084 75.944 235.812 75.736 235.556 75.512C235.332 75.256 235.22 74.968 235.22 74.648C235.22 74.36 235.316 74.12 235.508 73.928C235.7 73.736 236.084 73.512 236.66 73.256C239.124 72.104 240.9 71.496 241.988 71.432C242.02 71.432 242.068 71.432 242.132 71.432C242.42 71.432 242.644 71.528 242.804 71.72C242.964 71.912 243.044 72.232 243.044 72.68L242.996 79.304V88.52C242.996 89.544 243.108 90.376 243.332 91.016C243.588 91.624 243.844 92.024 244.1 92.216C244.388 92.408 244.644 92.648 244.868 92.936C245.124 93.224 245.252 93.56 245.252 93.944C245.252 94.648 244.596 95 243.284 95H237.236C235.892 95 235.22 94.632 235.22 93.896C235.22 93.512 235.348 93.176 235.604 92.888ZM236.084 65.72C236.116 64.696 236.596 63.768 237.524 62.936C238.452 62.104 239.396 61.688 240.356 61.688C240.484 61.688 240.596 61.688 240.692 61.688C241.428 61.72 242.036 61.992 242.516 62.504C243.028 63.016 243.284 63.608 243.284 64.28C243.284 64.344 243.284 64.392 243.284 64.424C243.252 65.416 242.756 66.328 241.796 67.16C240.836 67.96 239.86 68.36 238.868 68.36C238.772 68.36 238.692 68.36 238.628 68.36C237.828 68.328 237.204 68.088 236.756 67.64C236.308 67.16 236.084 66.6 236.084 65.96C236.084 65.896 236.084 65.816 236.084 65.72Z" fill="#0A696D"/>
<rect x="54" y="46" width="60" height="60" rx="10" fill="#0A696D"/>
<path d="M69.7603 61.744C69.7603 61.232 69.9683 60.88 70.3843 60.688C70.8003 60.496 71.4883 60.4 72.4483 60.4H82.7203C87.7443 60.4 91.6803 61.552 94.5283 63.856C97.3763 66.128 98.8003 69.152 98.8003 72.928C98.8003 76.512 97.5523 79.216 95.0563 81.04C92.5923 82.864 88.9443 83.776 84.1123 83.776H80.6563C80.2723 83.776 80.0163 83.84 79.8883 83.968C79.7603 84.064 79.6963 84.32 79.6963 84.736V85.984C79.6963 87.264 79.8563 88.304 80.1763 89.104C80.4963 89.872 80.8323 90.368 81.1843 90.592C81.5683 90.816 81.9203 91.104 82.2403 91.456C82.5603 91.776 82.7203 92.176 82.7203 92.656C82.7203 93.168 82.5283 93.52 82.1443 93.712C81.7603 93.904 81.0723 94 80.0803 94H72.4483C71.4883 94 70.8003 93.904 70.3843 93.712C69.9683 93.52 69.7603 93.168 69.7603 92.656C69.7603 92.176 69.9203 91.776 70.2403 91.456C70.5923 91.104 70.9603 90.816 71.3443 90.592C71.7283 90.368 72.0803 89.872 72.4003 89.104C72.7523 88.304 72.9283 87.264 72.9283 85.984V68.56C72.9283 67.632 72.8803 66.88 72.7843 66.304C72.6883 65.6 72.4643 65.024 72.1123 64.576C71.7603 64.096 71.4083 63.776 71.0563 63.616C70.7363 63.424 70.4323 63.184 70.1443 62.896C69.8883 62.576 69.7603 62.192 69.7603 61.744ZM80.5603 80.512C81.1043 80.736 82.1763 80.848 83.7763 80.848C86.3363 80.848 88.3203 80.24 89.7283 79.024C91.1683 77.808 91.8883 76.032 91.8883 73.696C91.8883 70.528 90.9923 68 89.2003 66.112C87.4083 64.192 85.2163 63.232 82.6243 63.232C81.3443 63.232 80.5283 63.312 80.1763 63.472C79.8563 63.632 79.6963 63.984 79.6963 64.528V79.312C79.6963 79.888 79.9843 80.288 80.5603 80.512Z" fill="white"/>
<path d="M106.112 80.416L106.352 79.6C106.576 78.832 107.072 78.448 107.84 78.448H117.056C117.824 78.448 118.208 78.72 118.208 79.264C118.208 79.392 118.192 79.536 118.16 79.696L117.968 80.464C117.744 81.232 117.232 81.616 116.432 81.616H107.264C106.464 81.616 106.064 81.344 106.064 80.8C106.064 80.704 106.08 80.576 106.112 80.416Z" fill="white"/>
</svg>
